<svg width="9.000000" height="13.000000" viewBox="0 0 9 13" fill="none" xmlns="http://www.w3.org/2000/svg" xmlns:xlink="http://www.w3.org/1999/xlink">
	<desc>
			Created with Pixso.
	</desc>
	<defs>
		<clipPath id="clip9_40">
			<rect id="fa6-solid:angle-down" width="9.000000" height="13.000000" transform="matrix(-1 0 0 1 9 0)" fill="white" fill-opacity="0"/>
		</clipPath>
	</defs>
	<rect id="fa6-solid:angle-down" width="9.000000" height="13.000000" transform="matrix(-1 0 0 1 9 0)" fill="#FFFFFF" fill-opacity="0"/>
	<g clip-path="url(#clip9_40)">
		<path id="Vector" d="M4.5 9.75C4.69 9.75 4.88 9.67 5.03 9.51L8.78 5.44C9.07 5.13 9.07 4.61 8.78 4.3C8.48 3.98 8.01 3.98 7.71 4.3L4.5 7.78L1.27 4.3C0.98 3.98 0.51 3.98 0.21 4.3C-0.08 4.61 -0.08 5.13 0.21 5.45L3.96 9.51C4.11 9.67 4.3 9.75 4.5 9.75Z" fill="#1AA090" fill-opacity="1.000000" fill-rule="nonzero"/>
	</g>
</svg>
