<svg width="132.000000" height="47.000000" viewBox="0 0 132 47" fill="none" xmlns="http://www.w3.org/2000/svg" xmlns:xlink="http://www.w3.org/1999/xlink">
	<desc>
			Created with Pixso.
	</desc>
	<defs/>
	<rect width="32.000000" height="31.000000" fill="#1AA090" fill-opacity="1.000000"/>
	<path d="M107.76 10.99C107.76 12.49 106.47 13.71 104.87 13.71C103.27 13.71 101.97 12.49 101.97 10.99C101.97 9.48 103.27 8.26 104.87 8.26C106.47 8.26 107.76 9.48 107.76 10.99ZM20.93 38L15.79 38L15.79 9.63L26.43 9.63C32.94 9.63 36.43 13.29 36.43 18.7C36.43 22.55 34.67 25.41 31.33 26.75L37.47 38L31.73 38L26.16 27.61L20.93 27.61L20.93 38ZM93.95 16.72L98.15 16.72L98.15 20.6L93.95 20.6L93.95 31.6C93.95 33.62 94.97 34.06 96.23 34.06C96.85 34.06 97.42 33.94 97.7 33.87L98.54 37.79C98 37.97 97.02 38.24 95.59 38.29C91.82 38.39 88.92 36.43 88.95 32.42L88.95 20.6L85.93 20.6L85.93 16.72L88.95 16.72L88.95 11.63L93.95 11.63L93.95 16.72ZM20.93 13.92L20.93 23.34L25.67 23.34C29.48 23.34 31.19 21.72 31.19 18.7C31.19 15.69 29.48 13.92 25.64 13.92L20.93 13.92ZM59.3 32.29C58.42 35.99 55.01 38.41 50.06 38.41C43.64 38.41 39.73 34.16 39.73 27.48C39.73 20.92 43.7 16.45 49.79 16.45C55.03 16.45 59.51 19.72 59.51 27.19L59.51 28.73L44.7 28.73C44.74 32.37 46.89 34.5 50.13 34.5C52.29 34.5 53.94 33.57 54.63 31.76L59.3 32.29ZM73.27 20.68C70.62 20.68 68.77 22.46 68.77 25.53L68.77 38L63.76 38L63.76 16.72L68.55 16.72L68.55 20.33L68.79 20.33C69.77 17.97 71.96 16.45 75.14 16.45C79.53 16.45 82.44 19.35 82.42 24.45L82.42 38L77.41 38L77.41 25.23C77.41 22.39 75.86 20.68 73.27 20.68ZM107.36 38L102.36 38L102.36 16.72L107.36 16.72L107.36 38ZM129.71 38L112.24 38L112.24 34.81L123.2 21.06L123.2 20.88L112.6 20.88L112.6 16.72L129.35 16.72L129.35 20.14L118.9 33.66L118.9 33.84L129.71 33.84L129.71 38ZM49.86 20.35C46.87 20.35 44.86 22.64 44.71 25.35L54.71 25.35C54.68 22.46 52.74 20.35 49.86 20.35Z" fill="#FFFFFF" fill-opacity="1.000000" fill-rule="evenodd"/>
</svg>
