<svg width="146.000000" height="43.000000" viewBox="0 0 146 43" fill="none" xmlns="http://www.w3.org/2000/svg" xmlns:xlink="http://www.w3.org/1999/xlink">
	<desc>
			Created with Pixso.
	</desc>
	<defs/>
	<path d="M0.86 -0.65L0.86 " stroke="#83898F" stroke-opacity="1.000000" stroke-width="3.000000"/>
	<path d="M20.18 15.16L25.36 15.16L25.36 17.12L17.74 17.12L17.74 5.28L20.18 5.28L20.18 15.16ZM40.28 14.68L36 14.68L35.19 17.12L32.59 17.12L37 5.28L39.26 5.28L43.69 17.12L41.1 17.12L40.28 14.68ZM55.2 14.18L57.88 5.28L60.6 5.28L56.48 17.12L53.93 17.12L49.82 5.28L52.53 5.28L55.2 14.18ZM75.51 11.99L70.82 11.99L70.82 15.16L76.32 15.16L76.32 17.12L68.38 17.12L68.38 5.28L76.3 5.28L76.3 7.25L70.82 7.25L70.82 10.07L75.51 10.07L75.51 11.99ZM94.04 17.12L91.6 17.12L86.85 9.33L86.85 17.12L84.41 17.12L84.41 5.28L86.85 5.28L91.61 13.08L91.61 5.28L94.04 5.28L94.04 17.12ZM102.83 17.12L102.83 5.28L106.48 5.28C107.52 5.28 108.45 5.51 109.27 5.98C110.09 6.45 110.73 7.12 111.19 7.98C111.66 8.85 111.89 9.83 111.89 10.93L111.89 11.47C111.89 12.57 111.66 13.55 111.2 14.41C110.75 15.27 110.12 15.93 109.29 16.4C108.47 16.87 107.54 17.11 106.5 17.12L102.83 17.12ZM127.45 11.99L122.77 11.99L122.77 15.16L128.27 15.16L128.27 17.12L120.33 17.12L120.33 5.28L128.25 5.28L128.25 7.25L122.77 7.25L122.77 10.07L127.45 10.07L127.45 11.99ZM140.74 12.78L138.8 12.78L138.8 17.12L136.36 17.12L136.36 5.28L140.76 5.28Q142.86 5.28 143.99 6.21C144.75 6.84 145.13 7.72 145.13 8.86Q145.13 10.07 144.6 10.88C144.26 11.42 143.73 11.85 143.02 12.16L145.58 17L145.58 17.12L142.96 17.12L140.74 12.78ZM105.27 7.25L105.27 15.16L106.45 15.16Q107.49 15.16 108.18 14.66Q108.43 14.48 108.64 14.22Q109.4 13.29 109.41 11.55L109.41 10.92C109.41 9.72 109.16 8.81 108.67 8.19C108.17 7.56 107.44 7.25 106.48 7.25L105.27 7.25ZM138.8 10.81L140.77 10.81C141.38 10.81 141.85 10.65 142.19 10.34C142.53 10.03 142.69 9.6 142.69 9.05C142.69 8.49 142.53 8.05 142.21 7.73C141.9 7.41 141.41 7.25 140.76 7.25L138.8 7.25L138.8 10.81ZM36.66 12.7L39.62 12.7L38.13 8.27L36.66 12.7ZM44.8 36.72Q44.14 37.51 42.94 37.94C42.13 38.23 41.24 38.38 40.27 38.38C39.24 38.38 38.34 38.15 37.57 37.71C36.8 37.26 36.2 36.61 35.78 35.76C35.36 34.91 35.15 33.91 35.14 32.76L35.14 31.95C35.14 30.77 35.33 29.75 35.73 28.89C36.13 28.02 36.71 27.36 37.45 26.9C38.21 26.44 39.09 26.21 40.1 26.21C41.5 26.21 42.6 26.55 43.39 27.22C44.18 27.89 44.65 28.86 44.8 30.14L42.42 30.14C42.31 29.46 42.07 28.96 41.7 28.65Q41.15 28.18 40.17 28.18C39.34 28.18 38.71 28.49 38.28 29.11C37.84 29.74 37.62 30.66 37.62 31.89L37.62 32.65C37.62 33.89 37.85 34.83 38.32 35.46C38.8 36.1 39.49 36.42 40.4 36.42C41.31 36.42 41.97 36.22 42.36 35.83L42.36 33.79L40.14 33.79L40.14 31.99L44.8 31.99L44.8 36.72ZM97.19 34.27C97.1 35.54 96.63 36.55 95.77 37.28C94.93 38.01 93.81 38.38 92.42 38.38C90.91 38.38 89.71 37.87 88.84 36.85Q87.54 35.31 87.54 32.63L87.54 31.91C87.54 30.77 87.74 29.77 88.14 28.9C88.54 28.03 89.11 27.37 89.85 26.91C90.6 26.44 91.47 26.21 92.46 26.21C93.82 26.21 94.92 26.58 95.76 27.31C96.59 28.04 97.08 29.07 97.21 30.39L94.77 30.39C94.71 29.63 94.49 29.07 94.12 28.73C93.76 28.38 93.2 28.21 92.46 28.21C91.64 28.21 91.03 28.5 90.63 29.09Q90.02 29.96 90.01 31.8L90.01 32.69C90.01 33.97 90.2 34.91 90.59 35.5Q90.77 35.78 91.03 35.97Q91.57 36.38 92.42 36.38C93.18 36.38 93.74 36.21 94.11 35.87C94.48 35.52 94.7 34.99 94.75 34.27L97.19 34.27ZM24.43 35.77L20.15 35.77L19.33 38.21L16.74 38.21L21.15 26.37L23.41 26.37L27.84 38.21L25.25 38.21L24.43 35.77ZM60.57 33.08L55.88 33.08L55.88 36.25L61.38 36.25L61.38 38.21L53.44 38.21L53.44 26.37L61.36 26.37L61.36 28.35L55.88 28.35L55.88 31.17L60.57 31.17L60.57 33.08ZM79.1 38.21L76.66 38.21L71.91 30.42L71.91 38.21L69.47 38.21L69.47 26.37L71.91 26.37L76.67 34.18L76.67 26.37L79.1 26.37L79.1 38.21ZM109.54 31.71L112 26.37L114.67 26.37L110.78 33.92L110.78 38.21L108.3 38.21L108.3 33.92L104.41 26.37L107.09 26.37L109.54 31.71ZM20.81 33.8L23.77 33.8L22.28 29.37L20.81 33.8Z" fill="#83898F" fill-opacity="1.000000" fill-rule="evenodd"/>
</svg>
