<svg width="135.000000" height="32.000000" viewBox="0 0 135 32" fill="none" xmlns="http://www.w3.org/2000/svg" xmlns:xlink="http://www.w3.org/1999/xlink">
	<desc>
			Created with Pixso.
	</desc>
	<defs/>
	<path d="M22.85 0.81L17.47 0.81L10.98 17.65L4.49 0.81L-0.81 0.81L10.98 31.38L22.85 0.81Z" fill="#83898F" fill-opacity="1.000000" fill-rule="nonzero"/>
	<path d="M29.81 0.81L34.8 0.81L34.8 31.38L29.81 31.38L29.81 0.81Z" fill="#83898F" fill-opacity="1.000000" fill-rule="evenodd"/>
	<path d="M52.68 23.53C58.69 23.53 63.68 18.46 63.68 12.17C63.68 5.96 58.77 0.81 52.68 0.81C46.59 0.81 41.68 5.96 41.68 12.17C41.68 18.46 46.67 23.53 52.68 23.53ZM52.68 5.87C56.08 5.87 58.77 8.65 58.77 12.17C58.77 15.68 56.08 18.46 52.68 18.46C49.28 18.46 46.59 15.68 46.59 12.17C46.59 8.65 49.28 5.87 52.68 5.87Z" fill="#83898F" fill-opacity="1.000000" fill-rule="nonzero"/>
	<path d="M42.79 26.31L62.33 26.31L62.33 31.38L42.79 31.38L42.79 26.31Z" fill="#83898F" fill-opacity="1.000000" fill-rule="evenodd"/>
	<path d="M86.46 26.31L75.55 26.31L75.55 0.81L70.64 0.81L70.64 31.38L86.46 31.38L86.46 26.31Z" fill="#83898F" fill-opacity="1.000000" fill-rule="nonzero"/>
	<path d="M113.52 26.31L98.73 26.31L98.73 18.63L110.99 18.63L110.99 13.56L98.73 13.56L98.73 5.96L113.52 5.96L113.52 0.81L93.74 0.81L93.74 31.38L113.52 31.38L113.52 26.31Z" fill="#83898F" fill-opacity="1.000000" fill-rule="nonzero"/>
	<path d="M124.44 31.38L129.35 31.38L129.35 5.96L134.25 5.96L134.25 0.81L119.46 0.81L119.46 5.96L124.44 5.96L124.44 31.38Z" fill="#83898F" fill-opacity="1.000000" fill-rule="nonzero"/>
	<path d="M52.68 24.84C59.41 24.84 64.86 19.2 64.86 12.25C64.86 5.3 59.41 -0.34 52.68 -0.34C45.95 -0.34 40.5 5.3 40.5 12.25C40.42 19.2 45.95 24.84 52.68 24.84ZM52.68 0.32C59.09 0.32 64.23 5.63 64.23 12.25C64.23 18.79 59.09 24.19 52.68 24.19C46.27 24.19 41.13 18.87 41.13 12.25C41.13 5.63 46.27 0.32 52.68 0.32Z" fill="#83898F" fill-opacity="1.000000" fill-rule="nonzero"/>
</svg>
