<svg width="181.000000" height="48.000000" viewBox="0 0 181 48" fill="none" xmlns="http://www.w3.org/2000/svg" xmlns:xlink="http://www.w3.org/1999/xlink">
	<desc>
			Created with Pixso.
	</desc>
	<defs/>
	<path d="M0 0L180.97 0L180.97 2.22L0 2.22L0 0ZM22.65 27.05C22.48 29.43 21.6 31.3 20.01 32.67C18.43 34.03 16.35 34.72 13.75 34.72C10.92 34.72 8.69 33.77 7.06 31.86Q4.63 28.99 4.63 24L4.63 22.65Q4.63 19.46 5.75 17.03Q6.61 15.18 8.03 13.98Q8.47 13.62 8.96 13.31Q9.25 13.13 9.57 12.97Q11.44 12.01 13.82 12.01Q17.21 12.01 19.43 13.62Q19.71 13.83 19.98 14.06C21.54 15.42 22.44 17.34 22.68 19.81L18.13 19.81C18.01 18.38 17.62 17.35 16.93 16.71Q15.91 15.74 13.82 15.74Q12.33 15.74 11.33 16.44Q10.8 16.81 10.4 17.38C9.65 18.47 9.27 20.15 9.25 22.44L9.25 24.11C9.25 26.5 9.61 28.24 10.32 29.34Q10.67 29.88 11.15 30.24Q12.17 31 13.75 31C15.16 31 16.21 30.68 16.9 30.04C17.59 29.39 17.99 28.4 18.1 27.05L22.65 27.05ZM169.71 28.62C169.71 27.76 169.4 27.1 168.8 26.64C168.19 26.18 167.1 25.69 165.52 25.18C163.94 24.67 162.69 24.16 161.77 23.67C159.26 22.31 158 20.48 158 18.19C158 16.99 158.34 15.93 159 15C159.68 14.06 160.65 13.32 161.9 12.8C163.17 12.27 164.59 12.01 166.15 12.01C167.73 12.01 169.14 12.3 170.37 12.87C171.61 13.44 172.56 14.25 173.24 15.29C173.93 16.33 174.28 17.51 174.28 18.84L169.72 18.84C169.72 17.83 169.4 17.04 168.76 16.49C168.13 15.92 167.23 15.64 166.08 15.64C164.96 15.64 164.1 15.87 163.48 16.35C162.86 16.82 162.56 17.43 162.56 18.2C162.56 18.92 162.92 19.52 163.63 20.01C164.36 20.49 165.43 20.95 166.84 21.37C169.43 22.15 171.32 23.12 172.5 24.27C173.68 25.43 174.28 26.86 174.28 28.59C174.28 30.5 173.55 32 172.1 33.09C170.66 34.18 168.71 34.72 166.26 34.72C164.56 34.72 163.01 34.41 161.62 33.79C160.22 33.16 159.15 32.31 158.41 31.23C157.68 30.14 157.32 28.89 157.32 27.46L161.89 27.46C161.89 29.9 163.35 31.12 166.26 31.12C167.34 31.12 168.19 30.9 168.8 30.47C169.4 30.02 169.71 29.4 169.71 28.62ZM45.16 24.84L36.41 24.84L36.41 30.76L46.67 30.76L46.67 34.41L31.86 34.41L31.86 12.31L46.64 12.31L46.64 16L36.41 16L36.41 21.27L45.16 21.27L45.16 24.84ZM68.04 29.86L60.06 29.86L58.54 34.41L53.7 34.41L61.92 12.31L66.14 12.31L74.42 34.41L69.57 34.41L68.04 29.86ZM97.51 16L90.74 16L90.74 34.41L86.19 34.41L86.19 16L79.51 16L79.51 12.31L97.51 12.31L97.51 16ZM124.33 34.41L119.78 34.41L119.78 24.94L110.9 24.94L110.9 34.41L106.34 34.41L106.34 12.31L110.9 12.31L110.9 21.27L119.78 21.27L119.78 12.31L124.33 12.31L124.33 34.41ZM147.84 24.84L139.09 24.84L139.09 30.76L149.36 30.76L149.36 34.41L134.54 34.41L134.54 12.31L149.33 12.31L149.33 16L139.09 16L139.09 21.27L147.84 21.27L147.84 24.84ZM61.29 26.17L66.81 26.17L64.03 17.9L61.29 26.17ZM0 45.52L180.97 45.52L180.97 47.74L0 47.74L0 45.52Z" fill="#83898F" fill-opacity="1.000000" fill-rule="evenodd"/>
</svg>
