<svg width="165.000000" height="66.000000" viewBox="0 0 165 66" fill="none" xmlns="http://www.w3.org/2000/svg" xmlns:xlink="http://www.w3.org/1999/xlink">
	<desc>
			Created with Pixso.
	</desc>
	<defs/>
	<path d="M15.56 15.73C6.56 15.73 -0.77 23.44 -0.77 32.9C-0.77 42.37 6.56 50.08 15.56 50.08C24.57 50.08 31.9 42.37 31.9 32.9C31.9 23.44 24.57 15.73 15.56 15.73ZM24.44 40.74C23.95 41.2 23.33 41.65 22.71 42.04C22.08 42.5 21.34 42.83 20.59 43.22C19.85 43.55 18.98 43.81 18.11 44C17.24 44.2 16.31 44.33 15.32 44.33C13.89 44.33 12.58 44.13 11.53 43.81C10.47 43.48 9.6 43.02 8.92 42.37C8.24 41.78 7.74 41.07 7.43 40.22C7.12 39.37 6.93 38.52 6.93 37.54C6.93 36.17 7.24 35.06 7.8 34.14C8.36 33.23 9.17 32.45 10.1 31.79C9.6 31.27 9.23 30.62 8.92 29.83C8.61 29.12 8.42 28.33 8.42 27.42C8.42 26.5 8.61 25.59 8.92 24.81C9.23 24.02 9.73 23.31 10.29 22.72C10.91 22.13 11.59 21.67 12.4 21.35C13.2 21.02 14.07 20.89 15 20.89C16.06 20.89 16.99 21.09 17.8 21.41C18.67 21.74 19.35 22.2 19.97 22.78C20.59 23.37 21.03 24.09 21.34 24.87C21.65 25.66 21.84 26.57 21.84 27.55C21.84 28.66 21.53 29.64 20.97 30.49C20.41 31.34 19.72 32.05 18.92 32.71L21.77 35.25C22.02 34.99 22.27 34.73 22.52 34.41C22.77 34.14 23.08 33.75 23.45 33.23L27.67 37.02C27.24 37.67 26.74 38.32 26.18 38.91C25.62 39.63 25.07 40.22 24.44 40.74ZM22.83 37.67C22.46 38.06 22.02 38.39 21.65 38.71C20.9 39.24 19.97 39.76 18.92 40.22C17.86 40.67 16.62 40.87 15.19 40.87C14.69 40.87 14.2 40.8 13.64 40.67C13.14 40.54 12.64 40.35 12.21 40.09C11.78 39.82 11.4 39.43 11.15 38.98C10.84 38.52 10.72 37.93 10.72 37.28C10.72 36.3 10.97 35.58 11.53 34.99C12.02 34.41 12.77 33.88 13.76 33.36L14.69 32.84L19.66 37.15L20.28 36.69L15.44 32.45C16.62 31.79 17.55 31.08 18.23 30.29C18.92 29.51 19.29 28.59 19.29 27.48C19.29 26.9 19.17 26.37 18.98 25.92C18.73 25.46 18.48 25 18.05 24.68C17.67 24.35 17.24 24.09 16.68 23.89C16.18 23.7 15.63 23.63 15 23.63C14.51 23.63 14.01 23.7 13.51 23.89C13.02 24.09 12.58 24.35 12.21 24.68C11.84 25 11.53 25.46 11.28 25.92C11.03 26.37 10.97 26.96 10.97 27.55C10.97 28.4 11.15 29.12 11.59 29.7C12.02 30.36 12.58 30.94 13.33 31.6L14.14 32.32L13.39 32.71C12.96 32.97 12.46 33.23 12.09 33.49C11.65 33.82 11.34 34.14 11.03 34.47C10.72 34.86 10.47 35.25 10.35 35.71C10.16 36.17 10.1 36.69 10.1 37.21C10.1 37.93 10.22 38.58 10.53 39.17C10.84 39.76 11.22 40.15 11.71 40.54C12.21 40.87 12.77 41.2 13.39 41.33C14.01 41.52 14.69 41.59 15.38 41.59C16.81 41.59 18.11 41.33 19.29 40.87C20.41 40.41 21.4 39.82 22.21 39.24C23.14 38.52 23.95 37.74 24.69 36.82L24.07 36.36C23.57 36.89 23.2 37.28 22.83 37.67ZM13.76 31.08C12.89 30.36 12.4 29.7 12.09 29.18C11.84 28.66 11.71 28.14 11.71 27.61C11.71 26.7 12.02 25.92 12.58 25.33C13.2 24.74 13.95 24.42 14.88 24.42C15.32 24.42 15.75 24.48 16.12 24.61C16.56 24.74 16.87 24.94 17.24 25.2C17.55 25.46 17.8 25.79 17.99 26.18C18.17 26.57 18.3 27.03 18.3 27.55C18.3 28.59 17.99 29.44 17.36 30.1C16.74 30.75 15.87 31.34 14.69 31.99L13.76 31.08ZM15.94 28.4C16.12 28.14 16.25 27.81 16.25 27.42C16.25 26.57 15.87 26.18 15.07 26.18C14.69 26.18 14.45 26.31 14.2 26.5C13.95 26.77 13.89 27.03 13.89 27.42C13.89 27.75 13.95 28.01 14.07 28.33C14.2 28.59 14.51 28.92 14.88 29.31C15.38 28.99 15.69 28.66 15.94 28.4ZM13.45 37.15C13.45 37.67 13.64 38.06 14.07 38.32C14.45 38.58 14.94 38.71 15.44 38.71C15.75 38.71 16.06 38.71 16.43 38.65C16.74 38.58 17.05 38.52 17.36 38.39L14.32 35.65C13.7 36.04 13.45 36.56 13.45 37.15Z" fill="#83898F" fill-opacity="1.000000" fill-rule="nonzero"/>
	<path d="M14.88 0L16.25 0L16.25 17.3L14.88 17.3L14.88 0Z" fill="#83898F" fill-opacity="1.000000" fill-rule="evenodd"/>
	<path d="M14.88 46.68L16.25 46.68L16.25 65.88L14.88 65.88L14.88 46.68Z" fill="#83898F" fill-opacity="1.000000" fill-rule="evenodd"/>
	<path d="M57.3 29.93C54.87 29.93 52.67 29.4 50.71 28.33C48.77 27.25 47.24 25.77 46.13 23.9C45.02 22 44.47 19.88 44.47 17.52Q44.47 14.76 45.48 12.45L45.48 12.45Q45.77 11.79 46.13 11.18Q46.87 9.92 47.85 8.91Q49.1 7.63 50.74 6.74Q51.32 6.42 51.92 6.17L51.92 6.17Q54.4 5.11 57.33 5.11Q60.17 5.11 62.53 6.08Q63.85 6.6 64.95 7.42Q65.82 8.06 66.55 8.89L64.3 11.07Q63.06 9.77 61.54 9.06Q59.71 8.2 57.47 8.2Q55.29 8.2 53.44 8.99L53.44 8.99Q53 9.17 52.58 9.41Q51.45 10.04 50.57 10.92Q49.75 11.74 49.15 12.77Q48.89 13.22 48.69 13.7Q47.94 15.45 47.94 17.52Q47.94 19.49 48.62 21.19L48.62 21.19Q48.84 21.76 49.15 22.3C49.98 23.71 51.13 24.82 52.58 25.63C54.04 26.44 55.67 26.84 57.47 26.84Q59.55 26.84 61.3 26.08Q62.95 25.35 64.3 23.93L66.55 26.12C65.44 27.36 64.09 28.31 62.49 28.96C60.92 29.61 59.19 29.93 57.3 29.93ZM132.42 28.58C131.94 28.99 131.34 29.32 130.62 29.55C129.9 29.76 129.16 29.86 128.4 29.86C126.55 29.86 125.12 29.36 124.1 28.37C123.09 27.38 122.58 25.95 122.58 24.11L122.58 14.02L119.46 14.02L119.46 11.28L122.58 11.28L122.58 7.26L125.91 7.26L125.91 11.28L131.17 11.28L131.17 14.02L125.91 14.02L125.91 23.97C125.91 24.96 126.15 25.72 126.63 26.25C127.14 26.79 127.86 27.05 128.78 27.05C129.8 27.05 130.67 26.76 131.38 26.19L132.42 28.58ZM73.16 14.37Q73.5 13.75 73.96 13.24Q74.68 12.45 75.72 11.94Q77.42 11.11 79.85 11.11L79.85 14.33C79.66 14.31 79.41 14.3 79.09 14.3C77.28 14.3 75.86 14.84 74.82 15.93Q74.78 15.97 74.74 16.01L74.74 16.01Q73.3 17.6 73.3 20.5L73.3 29.65L69.97 29.65L69.97 11.28L73.16 11.28L73.16 14.37ZM99.34 20.57C99.34 20.82 99.32 21.16 99.27 21.58L84.37 21.58C84.58 23.19 85.28 24.5 86.48 25.49C87.71 26.46 89.22 26.95 91.02 26.95Q93.14 26.95 94.73 26.03Q95.61 25.52 96.33 24.73L98.16 26.88C97.33 27.85 96.29 28.59 95.04 29.1Q93.21 29.86 90.92 29.86C88.98 29.86 87.26 29.47 85.76 28.68C84.25 27.87 83.09 26.75 82.25 25.32C81.45 23.89 81.04 22.27 81.04 20.47C81.04 18.69 81.43 17.08 82.22 15.65C83.03 14.22 84.13 13.11 85.51 12.32Q85.97 12.06 86.44 11.86Q88.19 11.11 90.26 11.11C92.02 11.11 93.58 11.51 94.94 12.32C96.33 13.11 97.4 14.22 98.16 15.65C98.95 17.08 99.34 18.72 99.34 20.57ZM109.11 11.11C111.65 11.11 113.59 11.73 114.93 12.98C116.29 14.23 116.97 16.09 116.97 18.56L116.97 29.65L113.82 29.65L113.82 27.23C113.27 28.08 112.47 28.74 111.43 29.2C110.41 29.64 109.2 29.86 107.79 29.86C105.73 29.86 104.08 29.36 102.83 28.37C101.61 27.38 101 26.07 101 24.45C101 22.83 101.58 21.54 102.76 20.57C103.94 19.58 105.81 19.08 108.38 19.08L113.65 19.08L113.65 18.42C113.65 16.99 113.23 15.89 112.4 15.13C111.57 14.37 110.34 13.98 108.72 13.98C107.64 13.98 106.58 14.17 105.54 14.54C104.5 14.89 103.62 15.36 102.9 15.96L101.52 13.46C102.46 12.7 103.59 12.12 104.91 11.73C106.23 11.32 107.63 11.11 109.11 11.11ZM151.4 20.57C151.4 20.82 151.38 21.16 151.33 21.58L136.42 21.58C136.63 23.19 137.34 24.5 138.54 25.49C139.76 26.46 141.28 26.95 143.08 26.95C145.27 26.95 147.04 26.21 148.38 24.73L150.22 26.88C149.39 27.85 148.35 28.59 147.1 29.1C145.88 29.61 144.5 29.86 142.98 29.86C141.03 29.86 139.31 29.47 137.81 28.68C136.31 27.87 135.14 26.75 134.31 25.32C133.5 23.89 133.1 22.27 133.1 20.47C133.1 18.69 133.49 17.08 134.28 15.65C135.08 14.22 136.18 13.11 137.57 12.32C138.98 11.51 140.56 11.11 142.32 11.11C144.07 11.11 145.63 11.51 147 12.32C148.38 13.11 149.46 14.22 150.22 15.65C151 17.08 151.4 18.72 151.4 20.57ZM158.17 14.37C158.75 13.3 159.6 12.49 160.73 11.94C161.87 11.39 163.24 11.11 164.86 11.11L164.86 14.33C164.67 14.31 164.42 14.3 164.1 14.3Q161.99 14.3 160.57 15.29Q160.17 15.57 159.83 15.93C158.82 16.99 158.31 18.51 158.31 20.5L158.31 29.65L154.98 29.65L154.98 11.28L158.17 11.28L158.17 14.37ZM90.26 13.92Q88.65 13.92 87.38 14.58Q86.77 14.9 86.24 15.37C85.18 16.34 84.55 17.61 84.37 19.18L96.15 19.18C95.97 17.64 95.33 16.38 94.25 15.41Q93.72 14.91 93.1 14.58Q91.86 13.92 90.26 13.92ZM142.32 13.92C140.72 13.92 139.38 14.4 138.3 15.37C137.23 16.34 136.61 17.61 136.42 19.18L148.21 19.18C148.02 17.64 147.39 16.38 146.3 15.41C145.24 14.41 143.91 13.92 142.32 13.92ZM108.34 27.29C109.61 27.29 110.71 27.02 111.64 26.46C112.56 25.89 113.23 25.08 113.65 24.04L113.65 21.47L108.52 21.47C105.7 21.47 104.29 22.42 104.29 24.31C104.29 25.24 104.65 25.97 105.36 26.5C106.08 27.03 107.07 27.29 108.34 27.29ZM49.91 41.09L49.91 49.54L62.08 49.54L62.08 52.52L49.91 52.52L49.91 62.33L46.45 62.33L46.45 38.07L63.57 38.07L63.57 41.09L49.91 41.09ZM72.97 43.79C75.51 43.79 77.45 44.41 78.79 45.66C80.16 46.91 80.84 48.77 80.84 51.24L80.84 62.33L77.68 62.33L77.68 59.91C77.13 60.76 76.33 61.42 75.29 61.88Q73.77 62.54 71.65 62.54Q68.57 62.54 66.7 61.05C65.47 60.06 64.86 58.75 64.86 57.13C64.86 55.52 65.45 54.22 66.63 53.25Q68.39 51.76 72.24 51.76L77.51 51.76L77.51 51.1C77.51 49.67 77.09 48.57 76.26 47.81C75.43 47.05 74.21 46.67 72.59 46.67C71.5 46.67 70.44 46.85 69.4 47.22C68.36 47.57 67.48 48.04 66.76 48.64L65.38 46.15C66.33 45.38 67.46 44.81 68.78 44.41C70.09 44 71.49 43.79 72.97 43.79ZM101.87 43.96L93.83 62.33L90.44 62.33L82.39 43.96L85.86 43.96L92.17 58.69L98.62 43.96L101.87 43.96ZM72.21 59.98C73.48 59.98 74.58 59.7 75.5 59.14C76.42 58.57 77.09 57.76 77.51 56.72L77.51 54.15L72.38 54.15C69.56 54.15 68.15 55.1 68.15 56.99C68.15 57.92 68.51 58.65 69.23 59.18C69.94 59.71 70.94 59.98 72.21 59.98Z" fill="#83898F" fill-opacity="1.000000" fill-rule="evenodd"/>
</svg>
