<svg width="184.000000" height="40.000000" viewBox="0 0 184 40" fill="none" xmlns="http://www.w3.org/2000/svg" xmlns:xlink="http://www.w3.org/1999/xlink">
	<desc>
			Created with Pixso.
	</desc>
	<defs/>
	<rect x="89.933594" y="-0.380493" rx="1.000000" width="93.264656" height="39.970562" fill="#83898F" fill-opacity="1.000000"/>
	<path d="M0 8.84L4.34 8.84L8.96 22.39C10.38 17.9 13.85 8.13 15.14 5.71C17.11 1.93 20.57 0.22 24.85 0.86L24.37 5.14C21.72 4.71 19.89 5.56 18.8 7.84C16.63 11.91 11.2 29.66 11.13 29.81L10.86 30.02L7.33 30.09L0 8.84Z" fill="#83898F" fill-opacity="1.000000" fill-rule="nonzero"/>
	<path d="M27.29 12.27L24.57 12.27L24.57 8.41L34.28 8.41L34.28 12.27L31.36 12.27L31.36 25.67L27.29 25.67L27.29 12.27ZM24.57 26.31L34.28 26.31L34.28 30.16L24.57 30.16L24.57 26.31Z" fill="#83898F" fill-opacity="1.000000" fill-rule="nonzero"/>
	<path d="M42.57 8.84L46.78 8.84L53.3 21.39L53.3 8.84L57.37 8.84L57.37 30.02L57.1 30.16L53.16 30.16L46.64 17.54L46.64 30.16L42.57 30.16L42.57 8.84Z" fill="#83898F" fill-opacity="1.000000" fill-rule="nonzero"/>
	<path d="M165.1 25.89L165.1 22.61L171.21 22.61L171.21 18.34L158.58 18.34L158.58 22.61L160.96 22.61L160.96 30.17L174.27 30.17L174.27 25.89L165.1 25.89Z" fill="#121B25" fill-opacity="1.000000" fill-rule="nonzero"/>
	<path d="M165.1 12.77L173.66 12.77L173.66 8.5L160.96 8.5L160.96 17.55L165.1 17.55L165.1 12.77Z" fill="#121B25" fill-opacity="1.000000" fill-rule="nonzero"/>
	<path d="M102.77 13.13L96.59 13.13L96.59 8.78L113.02 8.78L113.02 13.13L106.84 13.13L106.84 30.17L102.7 30.17L102.7 13.13L102.77 13.13Z" fill="#121B25" fill-opacity="1.000000" fill-rule="nonzero"/>
	<path d="M62.46 17.4L78.22 17.4L78.22 21.53L62.46 21.53L62.46 17.4Z" fill="#83898F" fill-opacity="1.000000" fill-rule="evenodd"/>
	<path d="M145.48 20.19L145.48 24.04L150.09 24.04C149.01 25.18 147.65 25.89 146.02 25.89C142.69 25.89 139.98 23.04 139.98 19.55C139.98 16.05 142.69 13.2 146.02 13.2C148.33 13.2 150.43 14.56 151.45 16.77L155.05 14.7C153.28 11.13 149.82 8.92 146.02 8.92C140.38 8.92 135.9 13.7 135.9 19.55C135.9 25.4 140.45 30.24 146.02 30.24C149.89 30.24 153.49 28.18 155.12 24.11L155.12 20.26L145.48 20.26L145.48 20.19Z" fill="#121B25" fill-opacity="1.000000" fill-rule="nonzero"/>
	<path d="M126.13 9.07L122.32 9.14C122.32 9.14 117.5 24.9 115.13 30.31L117.5 30.31L119.61 30.31L129.05 30.31L130.34 30.31L131.76 30.31L133.39 30.31L126.13 9.07ZM121.03 26.46C122.32 22.97 123.61 19.12 124.36 16.77L127.69 26.46L121.03 26.46Z" fill="#121B25" fill-opacity="1.000000" fill-rule="nonzero"/>
</svg>
