<svg width="22.000000" height="22.000000" viewBox="0 0 22 22" fill="none" xmlns="http://www.w3.org/2000/svg" xmlns:xlink="http://www.w3.org/1999/xlink">
	<desc>
			Created with Pixso.
	</desc>
	<defs>
		<clipPath id="clip52_6">
			<rect width="22.000000" height="22.000000" fill="white" fill-opacity="0"/>
		</clipPath>
	</defs>
	<rect width="22.000000" height="22.000000" fill="#FFFFFF" fill-opacity="0"/>
	<g clip-path="url(#clip52_6)">
		<path d="M17.87 2.75C16.35 2.75 15.12 3.98 15.12 5.5L13.75 5.5L13.75 6.87L17.87 6.87L17.87 5.5L16.5 5.5C16.5 4.68 17.05 4.12 17.87 4.12C18.69 4.12 19.25 4.68 19.25 5.5L19.25 9.62L0.68 9.62L0.68 11L1.5 11L2.55 16.22L2.55 16.24C2.63 16.59 2.8 16.91 3.04 17.18C3.28 17.45 3.59 17.65 3.93 17.76L3.43 19.25L4.81 19.25L5.26 17.87L16.73 17.87L17.18 19.25L18.56 19.25L18.06 17.76C18.78 17.54 19.34 16.97 19.5 16.24L19.5 16.22L20.49 11L21.31 11L21.31 9.62L20.62 9.62L20.62 5.5C20.62 3.98 19.39 2.75 17.87 2.75ZM2.9 11L19.12 11L18.15 15.96C18.07 16.26 17.82 16.5 17.46 16.5L4.59 16.5C4.22 16.5 3.97 16.25 3.91 15.94L2.9 11Z" fill="#1AA090" fill-opacity="1.000000" fill-rule="nonzero"/>
	</g>
</svg>
