<svg width="22.000000" height="22.000000" viewBox="0 0 22 22" fill="none" xmlns="http://www.w3.org/2000/svg" xmlns:xlink="http://www.w3.org/1999/xlink">
	<desc>
			Created with Pixso.
	</desc>
	<defs>
		<clipPath id="clip52_10">
			<rect width="22.000000" height="22.000000" fill="white" fill-opacity="0"/>
		</clipPath>
	</defs>
	<rect width="22.000000" height="22.000000" fill="#FFFFFF" fill-opacity="0"/>
	<g clip-path="url(#clip52_10)">
		<path d="M4.12 4.12C2.99 4.12 2.06 5.05 2.06 6.18L2.06 10.84C1.64 11.22 1.37 11.77 1.37 12.37L1.37 18.56L4.81 18.56L4.81 17.18L17.18 17.18L17.18 18.56L20.62 18.56L20.62 12.37C20.62 11.77 20.35 11.22 19.93 10.84L19.93 6.18C19.93 5.05 19 4.12 17.87 4.12L4.12 4.12ZM4.12 5.5L17.87 5.5C18.25 5.5 18.56 5.8 18.56 6.18L18.56 10.31L17.18 10.31L17.18 9.62C17.18 8.49 16.25 7.56 15.12 7.56L12.37 7.56C11.84 7.56 11.36 7.76 11 8.09C10.62 7.75 10.13 7.56 9.62 7.56L6.87 7.56C5.74 7.56 4.81 8.49 4.81 9.62L4.81 10.31L3.43 10.31L3.43 6.18C3.43 5.8 3.74 5.5 4.12 5.5ZM6.87 8.93L9.62 8.93C10 8.93 10.31 9.24 10.31 9.62L10.31 10.31L6.18 10.31L6.18 9.62C6.18 9.24 6.49 8.93 6.87 8.93ZM12.37 8.93L15.12 8.93C15.5 8.93 15.81 9.24 15.81 9.62L15.81 10.31L11.68 10.31L11.68 9.62C11.68 9.24 11.99 8.93 12.37 8.93ZM3.43 11.68L18.56 11.68C18.94 11.68 19.25 11.99 19.25 12.37L19.25 17.18L18.56 17.18L18.56 15.81L3.43 15.81L3.43 17.18L2.75 17.18L2.75 12.37C2.75 11.99 3.05 11.68 3.43 11.68Z" fill="#1AA090" fill-opacity="1.000000" fill-rule="nonzero"/>
	</g>
</svg>
