<svg width="22.000000" height="22.000000" viewBox="0 0 22 22" fill="none" xmlns="http://www.w3.org/2000/svg" xmlns:xlink="http://www.w3.org/1999/xlink">
	<desc>
			Created with Pixso.
	</desc>
	<defs>
		<clipPath id="clip52_8">
			<rect width="22.000000" height="22.000000" fill="white" fill-opacity="0"/>
		</clipPath>
	</defs>
	<rect width="22.000000" height="22.000000" fill="#FFFFFF" fill-opacity="0"/>
	<g clip-path="url(#clip52_8)">
		<path d="M3.43 3.43L3.43 8.25L4.81 8.25L4.81 13.75L3.43 13.75L3.43 18.56L8.25 18.56L8.25 17.18L13.75 17.18L13.75 18.56L18.56 18.56L18.56 13.75L17.18 13.75L17.18 8.25L18.56 8.25L18.56 3.43L13.75 3.43L13.75 4.81L8.25 4.81L8.25 3.43L3.43 3.43ZM4.81 4.81L6.87 4.81L6.87 6.87L4.81 6.87L4.81 4.81ZM15.12 4.81L17.18 4.81L17.18 6.87L15.12 6.87L15.12 4.81ZM8.25 6.18L13.75 6.18L13.75 8.25L15.81 8.25L15.81 13.75L13.75 13.75L13.75 15.81L8.25 15.81L8.25 13.75L6.18 13.75L6.18 8.25L8.25 8.25L8.25 6.18ZM4.81 15.12L6.87 15.12L6.87 17.18L4.81 17.18L4.81 15.12ZM15.12 15.12L17.18 15.12L17.18 17.18L15.12 17.18L15.12 15.12Z" fill="#1AA090" fill-opacity="1.000000" fill-rule="nonzero"/>
	</g>
</svg>
